<svg xmlns="http://www.w3.org/2000/svg" viewBox="0 0 369.25 227.08"><defs><style>.cls-1{fill:#a57a00;}</style></defs><title>Asset 1</title><g id="Layer_2" data-name="Layer 2"><g id="Layer_1-2" data-name="Layer 1"><path class="cls-1" d="M185.56.1H160.72a6.21,6.21,0,0,0-6.21,6.21v31a6.21,6.21,0,0,0,6.21,6.21h24.84a6.21,6.21,0,0,0,6.21-6.21V31.15h-7.1v6.21H161.61v-31h23.07v6.21h7.1V6.31A6.21,6.21,0,0,0,185.56.1Z"/><rect class="cls-1" x="255.58" y="0.1" width="7.1" height="43.47"/><path class="cls-1" d="M309.75.1H284.91a6.21,6.21,0,0,0-6.21,6.21v31a6.21,6.21,0,0,0,6.21,6.21h24.84A6.21,6.21,0,0,0,316,37.36v-31A6.21,6.21,0,0,0,309.75.1Zm-.89,37.26H285.79v-31h23.07Z"/><path class="cls-1" d="M24,37.36H7.1V31.15H0v6.21A6,6,0,0,0,1.86,41.7a6,6,0,0,0,4.35,1.86H24.84a5.8,5.8,0,0,0,4.44-2.22,6.18,6.18,0,0,0,1.77-4V.1H24Z"/><path class="cls-1" d="M77.67,37.36H54.61V.1h-7.1V37.36a6.21,6.21,0,0,0,6.21,6.21h31V.1h-7.1Z"/><polygon class="cls-1" points="207.26 0.08 206.44 0.08 206.44 6.29 207.26 6.29 220.13 6.29 220.13 43.55 227.22 43.55 227.22 6.29 240.09 6.29 240.91 6.29 240.91 0.08 240.09 0.08 207.26 0.08"/><polygon class="cls-1" points="131.41 32.39 131.41 36.83 130.52 36.83 113.75 0 108.33 0 101.23 0 101.23 16.66 101.23 43.49 108.33 43.49 108.33 16.66 108.33 11.1 108.33 6.66 109.22 6.66 126.08 43.49 131.41 43.49 138.51 43.49 138.51 0 131.41 0 131.41 32.39"/><polygon class="cls-1" points="362.15 0 362.15 32.39 362.15 36.83 361.26 36.83 344.49 0 339.07 0 331.97 0 331.97 16.66 331.97 43.49 339.07 43.49 339.07 16.66 339.07 11.1 339.07 6.66 339.96 6.66 356.83 43.49 362.15 43.49 369.25 43.49 369.25 0 362.15 0"/><path class="cls-1" d="M27.54,168.41H77.2v15H61.46v42.39H43.2V183.38H27.54Z"/><path class="cls-1" d="M85.85,168.41h18.26v57.36H85.85Z"/><path class="cls-1" d="M151.78,185.14a12.43,12.43,0,0,0-6.65-2.17,10.32,10.32,0,0,0-5.86,1.76,11.63,11.63,0,0,0-4.09,4.87,16.41,16.41,0,0,0-1.46,7,16.69,16.69,0,0,0,1.46,7.08,11.85,11.85,0,0,0,4.09,4.95,10.17,10.17,0,0,0,5.86,1.8,13.64,13.64,0,0,0,6.41-1.84,22.06,22.06,0,0,0,6.1-4.87l10.55,11.7a34.77,34.77,0,0,1-11.14,8.47,29.4,29.4,0,0,1-27.86-.74,27.52,27.52,0,0,1-10.43-10.8A31.78,31.78,0,0,1,115,196.89a30.22,30.22,0,0,1,3.86-15.26A27.76,27.76,0,0,1,129.5,171a30.72,30.72,0,0,1,15.39-3.85,30.35,30.35,0,0,1,12.67,2.9,31.19,31.19,0,0,1,10.63,7.73l-10.55,13A20.4,20.4,0,0,0,151.78,185.14Z"/><path class="cls-1" d="M234.09,225.77h-21.8l-11.65-20-5.19,6.05v13.91H177.19V168.41h18.26v20.95l16.45-20.95h21l-19.76,22.91Z"/><path class="cls-1" d="M242.55,168.41h46.67v14.4H260.81v7h25.82v14.4H260.81v7.12h29.12v14.4H242.55Z"/><path class="cls-1" d="M297.71,168.41h49.67v15H331.63v42.39H313.37V183.38H297.71Z"/><path class="cls-1" d="M39.49,106.09h16v24.5a41.89,41.89,0,0,1-11.7,5.52,43.72,43.72,0,0,1-13,2.17,31.15,31.15,0,0,1-15.72-4,28.54,28.54,0,0,1-10.9-11A31.5,31.5,0,0,1,.24,107.6a30.37,30.37,0,0,1,4.1-15.68A28.88,28.88,0,0,1,15.68,81,33.66,33.66,0,0,1,32,77.07a37.2,37.2,0,0,1,13.23,2.51,33.65,33.65,0,0,1,11.14,6.69L45.84,99.57a21.11,21.11,0,0,0-6.63-4.64,17.83,17.83,0,0,0-7.28-1.71,11.56,11.56,0,0,0-6.43,1.88,12.67,12.67,0,0,0-4.5,5.14,17.72,17.72,0,0,0,0,14.84,12.89,12.89,0,0,0,4.54,5.18,11.7,11.7,0,0,0,6.52,1.88,18.33,18.33,0,0,0,7.4-2Z"/><path class="cls-1" d="M111.22,81a28.41,28.41,0,0,1,11.06,10.87,30.86,30.86,0,0,1,4,15.64,31.48,31.48,0,0,1-4,15.8,28.52,28.52,0,0,1-11.06,11,32,32,0,0,1-15.93,4,32,32,0,0,1-15.93-4,28.52,28.52,0,0,1-11.06-11,31.48,31.48,0,0,1-4-15.8,31,31,0,0,1,4-15.72A28.11,28.11,0,0,1,79.37,81a32.52,32.52,0,0,1,15.93-3.89A32.25,32.25,0,0,1,111.22,81ZM89.54,95.09a13.32,13.32,0,0,0-4.42,5.14,16.07,16.07,0,0,0-1.65,7.36,16.32,16.32,0,0,0,1.65,7.4,13.58,13.58,0,0,0,4.42,5.23,10.31,10.31,0,0,0,6,1.92,9.93,9.93,0,0,0,5.87-1.88,12.69,12.69,0,0,0,4.18-5.23,17.7,17.7,0,0,0,1.53-7.44,17.44,17.44,0,0,0-1.53-7.4,12.43,12.43,0,0,0-4.18-5.14,10.09,10.09,0,0,0-5.87-1.84A10.48,10.48,0,0,0,89.54,95.09Z"/><path class="cls-1" d="M136.75,78.33h18.66v42.48h23.49v16.14H136.75Z"/><path class="cls-1" d="M228.64,81.92a25.64,25.64,0,0,1,10.7,10.24,30.69,30.69,0,0,1,3.78,15.43,30.1,30.1,0,0,1-3.86,15.47,26.19,26.19,0,0,1-11,10.24,35.84,35.84,0,0,1-16.53,3.64H187.3V78.33h25.18A34.6,34.6,0,0,1,228.64,81.92ZM221,118q3-3.85,3-10.28T220.8,97.31a10.76,10.76,0,0,0-8.73-3.93H206v28.51h7A9.74,9.74,0,0,0,221,118Z"/><path class="cls-1" d="M253.6,78.33h47.7V93h-29v7.19h26.38V115H272.27v7.27H302v14.72H253.6Z"/><path class="cls-1" d="M352.36,78.33h16.89v58.62h-15.6L331.45,107v29.94h-17V78.33h15.6l22.28,30.1Z"/></g></g></svg>