<svg id="Layer_1" data-name="Layer 1" xmlns="http://www.w3.org/2000/svg" viewBox="0 0 2385.24 512"><defs><style>.cls-1{fill:#fff;}</style></defs><title>Kopio tiedostosta 2016_junction_logo_text</title><path class="cls-1" d="M1233.83,362.72a37.72,37.72,0,0,1-37.72,37.72h-150.9a37.72,37.72,0,0,1-37.72-37.72V174.1a37.72,37.72,0,0,1,37.72-37.72h150.9a37.72,37.72,0,0,1,37.72,37.72v37.72h-43.11V174.1H1050.6V362.72h140.12V325h43.11Z"/><path class="cls-1" d="M1664.61,400.45H1621.5V136.38h43.11Z"/><path class="cls-1" d="M1988.27,362.72a37.72,37.72,0,0,1-37.72,37.72h-150.9a37.72,37.72,0,0,1-37.72-37.72V174.1a37.72,37.72,0,0,1,37.72-37.72h150.9a37.72,37.72,0,0,1,37.72,37.72Zm-43.11,0V174.1H1805V362.72Z"/><path class="cls-1" d="M214.37,136.38V362.72H112V325H68.86v37.72q0,15.09,11.32,26.41t26.41,11.32H219.76q15.08,0,26.95-13.47,10.77-12.39,10.78-24.25V136.38Z"/><path class="cls-1" d="M540.72,136.38V362.72H400.6V136.38H357.49V362.72a37.72,37.72,0,0,0,37.72,37.72H583.83V136.38Z"/><polygon class="cls-1" points="1527.36 136.25 1327.97 136.25 1322.94 136.25 1322.94 173.97 1327.97 173.97 1327.97 173.97 1406.11 173.97 1406.11 400.32 1449.22 400.32 1449.22 173.97 1527.36 173.97 1527.36 173.97 1532.39 173.97 1532.39 136.25 1527.36 136.25"/><polygon class="cls-1" points="867.15 135.78 867.15 332.57 867.15 359.53 861.75 359.53 759.86 135.78 726.97 135.78 683.83 135.78 683.83 236.99 683.83 399.97 726.97 399.97 726.97 236.99 726.97 203.18 726.97 176.22 732.36 176.22 834.8 399.97 867.15 399.97 910.28 399.97 910.28 135.78 867.15 135.78"/><polygon class="cls-1" points="2268.89 135.78 2268.89 332.57 2268.89 359.53 2263.49 359.53 2161.59 135.78 2128.71 135.78 2085.57 135.78 2085.57 236.99 2085.57 399.97 2128.71 399.97 2128.71 236.99 2128.71 203.18 2128.71 176.22 2134.1 176.22 2236.54 399.97 2268.89 399.97 2312.02 399.97 2312.02 135.78 2268.89 135.78"/></svg>